<svg width="30" height="30" viewBox="0 0 30 30" fill="none" xmlns="http://www.w3.org/2000/svg">
<g clip-path="url(#clip0_145_422)">
<path d="M26.9063 14.3438L22.2188 9.65625C21.8438 9.28125 21.2813 9.28125 20.9063 9.65625C20.5313 10.0312 20.5313 10.5937 20.9063 10.9687L24 14.0625H15C14.4375 14.0625 14.0625 14.4375 14.0625 15C14.0625 15.5625 14.4375 15.9375 15 15.9375H24L20.9063 19.0312C20.5313 19.4062 20.5313 19.9688 20.9063 20.3438C21.0938 20.5313 21.2813 20.625 21.5625 20.625C21.8438 20.625 22.0313 20.5313 22.2188 20.3438L26.9063 15.5625C26.9063 15.5625 26.9063 15.4688 27 15.4688C27.2813 15.1875 27.2813 14.625 26.9063 14.3438Z" fill="#ead0d1"/>
<path d="M19.625 21.75C19.0625 21.75 18.6875 22.125 18.6875 22.6875V24.5625C18.6875 25.125 18.3125 25.5 17.75 25.5H1.8125C1.25 25.5 0.875 25.125 0.875 24.5625V5.8125C0.875 5.25 1.25 4.875 1.8125 4.875H17.75C18.3125 4.875 18.6875 5.25 18.6875 5.8125V7.6875C18.6875 8.25 19.0625 8.625 19.625 8.625C20.1875 8.625 20.5625 8.25 20.5625 7.6875V5.8125C20.5625 4.21875 19.3438 3 17.75 3H1.8125C0.21875 3 -1 4.21875 -1 5.8125V24.5625C-1 26.1562 0.21875 27.375 1.8125 27.375H17.75C19.3438 27.375 20.5625 26.1562 20.5625 24.5625V22.6875C20.5625 22.125 20.1875 21.75 19.625 21.75Z" fill="#ead0d1"/>
</g>
<defs>
<clipPath id="clip0_145_422">
<rect width="30" height="30" fill="white"/>
</clipPath>
</defs>
</svg>
