<svg width="30" height="30" viewBox="0 0 30 30" fill="none" xmlns="http://www.w3.org/2000/svg">
<path d="M6.16534 25.2777C6.77295 25.2777 7.23881 24.8157 7.23881 24.1772L7.21893 20.1479L9.08236 19.2073L14.1472 16.2785L13.8023 21.5855V23.4676L9.79195 25.4557C9.14372 25.7753 8.94061 26.3608 9.26472 26.822C9.60958 27.3726 10.2578 27.4431 10.8853 27.1242L13.8023 25.6685V28.8813C13.8023 29.538 14.2889 30 14.9976 30C15.747 30 16.193 29.538 16.193 28.8813V25.6685L19.0892 27.1242C19.7176 27.4438 20.3658 27.3726 20.7305 26.8402C21.0546 26.3608 20.8317 25.7753 20.1834 25.4557L16.193 23.4676V21.5855L15.8481 16.2777L20.9129 19.1891L22.7763 20.1298L22.7357 24.1772C22.7357 24.8165 23.2024 25.2777 23.8299 25.2777C24.5585 25.2777 24.944 24.7983 24.944 24.1772V21.2484L28.1445 22.8639C28.7927 23.1835 29.4608 23.0593 29.8057 22.4913C30.1704 21.9588 29.9673 21.337 29.339 21.0356L26.1393 19.4201L29.0356 17.947C29.6639 17.6274 29.9275 17.0949 29.5628 16.5625C29.2387 16.0831 28.5905 15.9414 27.9422 16.2785L23.9717 18.3196L22.1082 17.3789L16.6787 15L22.1082 12.6218L23.9717 11.663L27.9422 13.7041C28.5697 14.0412 29.2586 13.8995 29.5827 13.4375C29.9267 12.8877 29.6639 12.3545 29.0356 12.0356L26.1592 10.5625L29.3398 8.9644C29.988 8.62737 30.1903 8.05933 29.8057 7.49129C29.4608 6.95885 28.7927 6.79904 28.1445 7.13608L24.944 8.75158L24.9232 5.80535C24.9232 5.1843 24.5585 4.70412 23.8299 4.72229C23.2016 4.72229 22.7357 5.16612 22.7357 5.80535L22.7763 9.8513L20.9129 10.792L15.8481 13.7034L16.193 8.39561V6.51426L20.1834 4.52689C20.8317 4.20727 21.0546 3.62106 20.7305 3.15981C20.3658 2.60995 19.7176 2.53875 19.0892 2.85837L16.193 4.31406V1.10048C16.193 0.443828 15.747 -4.14195e-08 14.9976 0C14.2889 0 13.8023 0.443828 13.8023 1.10048V4.31406L10.8853 2.85837C10.2578 2.55617 9.60958 2.60995 9.26472 3.15981C8.94061 3.62181 9.14372 4.20727 9.79195 4.52689L13.8023 6.51502V8.39637L14.1472 13.7223L9.08236 10.7927L7.21893 9.83464L7.23881 5.80535C7.23881 5.16612 6.77295 4.72229 6.16534 4.72229C5.43674 4.72229 5.05126 5.1843 5.05126 5.80535L5.03138 8.73416L1.85076 7.13608C1.22328 6.81646 0.534431 6.95885 0.189575 7.49129C-0.195038 8.05933 0.0279512 8.64479 0.656297 8.9644L3.83606 10.5625L0.959667 12.0356C0.331321 12.3552 0.0478302 12.8702 0.412565 13.4383C0.716798 13.8995 1.42552 14.0412 2.05387 13.7041L6.0236 11.6804L7.88703 12.6211L13.3166 15L7.88703 17.3782L6.0236 18.3196L2.05301 16.2777C1.40478 15.9407 0.736677 16.0831 0.432443 16.5443C0.0884519 17.1123 0.331321 17.6274 0.959667 17.947L3.83606 19.4201L0.655433 21.0356C0.0279515 21.337 -0.174295 21.9581 0.189575 22.4913C0.55431 23.0593 1.22241 23.1654 1.85076 22.8639L5.03138 21.2484L5.05126 24.1772C5.05126 24.7983 5.43588 25.2777 6.16621 25.2777H6.16534Z" fill="#ead0d1"/>
</svg>
