<svg width="200" height="201" viewBox="0 0 200 201" fill="none" xmlns="http://www.w3.org/2000/svg">
<g filter="url(#filter0_d_31_613)">
<path d="M138.301 184.113H61.0937C54.2578 184.113 48.6914 178.547 48.6914 171.711V32.3945C48.6914 25.5586 54.2578 19.9922 61.0937 19.9922H138.281C145.117 19.9922 150.684 25.5586 150.684 32.3945V171.711C150.703 178.547 145.137 184.113 138.301 184.113ZM61.0937 28.7812C59.1016 28.7812 57.5 30.4023 57.5 32.375V171.691C57.5 173.684 59.1211 175.285 61.0937 175.285H138.281C140.273 175.285 141.875 173.664 141.875 171.691V32.3945C141.875 30.4023 140.254 28.8008 138.281 28.8008H61.0937V28.7812Z" fill="#965454"/>
</g>
<g filter="url(#filter1_d_31_613)">
<path d="M146.289 81.457H53.1055C50.7031 81.457 48.75 79.5039 48.75 77.1016C48.75 74.6992 50.7031 72.7461 53.1055 72.7461H146.289C148.691 72.7461 150.645 74.6992 150.645 77.1016C150.664 79.5039 148.711 81.457 146.289 81.457Z" fill="#965454"/>
</g>
<g filter="url(#filter2_d_31_613)">
<path d="M69.1797 62.1211C66.7383 62.1211 64.7461 60.1289 64.7461 57.6875V44.9336C64.7461 42.4922 66.7383 40.5 69.1797 40.5C71.6211 40.5 73.6133 42.4922 73.6133 44.9336V57.6875C73.6328 60.1289 71.6406 62.1211 69.1797 62.1211ZM68.6328 127.57C66.1914 127.57 64.1992 125.578 64.1992 123.137V92.6289C64.1992 90.1875 66.1914 88.1953 68.6328 88.1953C71.0742 88.1953 73.0664 90.1875 73.0664 92.6289V123.137C73.0664 125.578 71.0742 127.57 68.6328 127.57Z" fill="#965454"/>
</g>
<defs>
<filter id="filter0_d_31_613" x="44.6914" y="19.9922" width="109.992" height="172.121" filterUnits="userSpaceOnUse" color-interpolation-filters="sRGB">
<feFlood flood-opacity="0" result="BackgroundImageFix"/>
<feColorMatrix in="SourceAlpha" type="matrix" values="0 0 0 0 0 0 0 0 0 0 0 0 0 0 0 0 0 0 127 0" result="hardAlpha"/>
<feOffset dy="4"/>
<feGaussianBlur stdDeviation="2"/>
<feComposite in2="hardAlpha" operator="out"/>
<feColorMatrix type="matrix" values="0 0 0 0 0 0 0 0 0 0 0 0 0 0 0 0 0 0 0.25 0"/>
<feBlend mode="normal" in2="BackgroundImageFix" result="effect1_dropShadow_31_613"/>
<feBlend mode="normal" in="SourceGraphic" in2="effect1_dropShadow_31_613" result="shape"/>
</filter>
<filter id="filter1_d_31_613" x="44.75" y="72.7461" width="109.895" height="16.7109" filterUnits="userSpaceOnUse" color-interpolation-filters="sRGB">
<feFlood flood-opacity="0" result="BackgroundImageFix"/>
<feColorMatrix in="SourceAlpha" type="matrix" values="0 0 0 0 0 0 0 0 0 0 0 0 0 0 0 0 0 0 127 0" result="hardAlpha"/>
<feOffset dy="4"/>
<feGaussianBlur stdDeviation="2"/>
<feComposite in2="hardAlpha" operator="out"/>
<feColorMatrix type="matrix" values="0 0 0 0 0 0 0 0 0 0 0 0 0 0 0 0 0 0 0.25 0"/>
<feBlend mode="normal" in2="BackgroundImageFix" result="effect1_dropShadow_31_613"/>
<feBlend mode="normal" in="SourceGraphic" in2="effect1_dropShadow_31_613" result="shape"/>
</filter>
<filter id="filter2_d_31_613" x="60.1992" y="40.5" width="17.4142" height="95.0703" filterUnits="userSpaceOnUse" color-interpolation-filters="sRGB">
<feFlood flood-opacity="0" result="BackgroundImageFix"/>
<feColorMatrix in="SourceAlpha" type="matrix" values="0 0 0 0 0 0 0 0 0 0 0 0 0 0 0 0 0 0 127 0" result="hardAlpha"/>
<feOffset dy="4"/>
<feGaussianBlur stdDeviation="2"/>
<feComposite in2="hardAlpha" operator="out"/>
<feColorMatrix type="matrix" values="0 0 0 0 0 0 0 0 0 0 0 0 0 0 0 0 0 0 0.25 0"/>
<feBlend mode="normal" in2="BackgroundImageFix" result="effect1_dropShadow_31_613"/>
<feBlend mode="normal" in="SourceGraphic" in2="effect1_dropShadow_31_613" result="shape"/>
</filter>
</defs>
</svg>
