<svg width="158" height="162" viewBox="0 0 158 162" fill="none" xmlns="http://www.w3.org/2000/svg">
<g filter="url(#filter0_d_49_864)">
<path d="M120.629 10.125H37.3707C28.7609 10.125 21.7559 17.3074 21.7559 26.1352V148.078C21.7559 150.182 23.4223 151.891 25.4744 151.891C27.5266 151.891 29.193 150.182 29.193 148.078V134.061H33.6521V140.611C33.6521 142.288 34.9791 143.664 36.6301 143.664C38.2811 143.664 39.608 142.304 39.608 140.611V134.061H118.392V140.611C118.392 142.288 119.719 143.664 121.37 143.664C123.005 143.664 124.348 142.304 124.348 140.611V134.061H128.807V148.078C128.807 150.182 130.473 151.891 132.526 151.891C134.578 151.891 136.244 150.182 136.244 148.078V26.1352C136.229 17.3074 129.224 10.125 120.629 10.125ZM29.193 75.5104V50.5143H128.792V75.5104H29.193ZM37.3707 17.7504H120.614C125.119 17.7504 128.792 21.5156 128.792 26.1352V42.9047H29.193V26.1352C29.193 21.4998 32.8652 17.7504 37.3707 17.7504ZM29.193 83.1357H75.1426V126.42H29.193V83.1357ZM82.5643 126.42V83.1357H128.792V126.42H82.5643V126.42Z" fill="#965454"/>
</g>
<defs>
<filter id="filter0_d_49_864" x="17.7559" y="10.125" width="122.488" height="149.766" filterUnits="userSpaceOnUse" color-interpolation-filters="sRGB">
<feFlood flood-opacity="0" result="BackgroundImageFix"/>
<feColorMatrix in="SourceAlpha" type="matrix" values="0 0 0 0 0 0 0 0 0 0 0 0 0 0 0 0 0 0 127 0" result="hardAlpha"/>
<feOffset dy="4"/>
<feGaussianBlur stdDeviation="2"/>
<feComposite in2="hardAlpha" operator="out"/>
<feColorMatrix type="matrix" values="0 0 0 0 0 0 0 0 0 0 0 0 0 0 0 0 0 0 0.25 0"/>
<feBlend mode="normal" in2="BackgroundImageFix" />
<feBlend mode="normal" in="SourceGraphic" in2=""/>
</filter>
</defs>
</svg>
