<svg width="18" height="20" viewBox="0 0 18 20" fill="none" xmlns="http://www.w3.org/2000/svg">
<path d="M14.25 9.16667H3.75C2.92157 9.16667 2.25 9.91286 2.25 10.8333V16.6667C2.25 17.5871 2.92157 18.3333 3.75 18.3333H14.25C15.0784 18.3333 15.75 17.5871 15.75 16.6667V10.8333C15.75 9.91286 15.0784 9.16667 14.25 9.16667Z" stroke="white" stroke-width="2" stroke-linecap="round" stroke-linejoin="round"/>
<path d="M5.25 9.16667V5.83334C5.25 4.72827 5.64509 3.66846 6.34835 2.88706C7.05161 2.10566 8.00544 1.66667 9 1.66667C9.99456 1.66667 10.9484 2.10566 11.6517 2.88706C12.3549 3.66846 12.75 4.72827 12.75 5.83334V9.16667" stroke="white" stroke-width="2" stroke-linecap="round" stroke-linejoin="round"/>
</svg>
