<svg width="45" height="45" viewBox="0 0 45 45" fill="none" xmlns="http://www.w3.org/2000/svg">
<path d="M38.2468 38.5571C34.1873 42.5379 28.6332 44.9999 22.5006 44.9999C10.0746 44.9999 0.00134277 34.9251 0.00134277 22.4991C0.00134277 10.0731 10.0746 -9.15527e-05 22.5006 -9.15527e-05C34.9265 -9.15527e-05 44.9998 10.0731 44.9998 22.4991C44.9998 28.7925 42.4107 34.4735 38.2468 38.5571ZM22.5006 41.7858C27.0679 41.7858 31.2592 40.1899 34.5633 37.535C32.8036 32.537 28.1012 28.9275 22.5006 28.9275C16.8999 28.9275 12.1975 32.537 10.4378 37.535C13.7419 40.1899 17.9332 41.7858 22.5006 41.7858ZM22.5006 3.21569C11.8504 3.21569 3.21552 11.8506 3.21552 22.5007C3.21552 27.314 4.98974 31.7029 7.90499 35.0826C10.4474 29.5574 16.0192 25.7149 22.5006 25.7149C28.9803 25.7149 34.5537 29.5574 37.0961 35.0826C40.0114 31.7045 41.7856 27.314 41.7856 22.5007C41.7856 11.8506 33.1507 3.21569 22.5006 3.21569ZM22.5006 24.1078C18.0618 24.1078 14.4651 20.5095 14.4651 16.0724C14.4651 11.6336 18.0618 8.03695 22.5006 8.03695C26.9377 8.03695 30.536 11.6336 30.536 16.0724C30.536 20.5095 26.9377 24.1078 22.5006 24.1078ZM22.5006 11.2511C19.8376 11.2511 17.6793 13.4094 17.6793 16.0708C17.6793 18.7337 19.8376 20.892 22.5006 20.892C25.1635 20.892 27.3218 18.7337 27.3218 16.0708C27.3218 13.4094 25.1635 11.2511 22.5006 11.2511Z" fill="black"/>
</svg>
