<svg width="31" height="30" viewBox="0 0 31 30" fill="none" xmlns="http://www.w3.org/2000/svg">
<path d="M30.5061 23.4382L27.1919 19.5875V13.9166C27.1919 6.58103 22.6144 3.45567 17.7959 2.85767V2.16674C17.7959 1.59208 17.5592 1.04097 17.1379 0.634623C16.7165 0.228281 16.145 0 15.5491 0C14.9532 0 14.3817 0.228281 13.9603 0.634623C13.539 1.04097 13.3023 1.59208 13.3023 2.16674V2.85767C8.48384 3.45769 3.90635 6.58103 3.90635 13.9146V19.5875L0.59212 23.4382C0.464126 23.5853 0.382495 23.7648 0.356873 23.9553C0.331252 24.1457 0.362711 24.3393 0.447534 24.5131C0.532357 24.6869 0.666997 24.8337 0.835545 24.936C1.00409 25.0384 1.1995 25.0921 1.39868 25.0907H29.7016C29.9006 25.0917 30.0957 25.0377 30.264 24.9352C30.4322 24.8327 30.5665 24.6859 30.6511 24.5122C30.7357 24.3385 30.767 24.1451 30.7413 23.9548C30.7156 23.7645 30.634 23.5852 30.5061 23.4382V23.4382ZM3.62772 23.0705L5.7583 20.5956C5.91384 20.4136 5.99899 20.1851 5.99922 19.9492V13.9146C5.99922 5.65372 12.3574 4.76279 15.0872 4.76279C15.2736 4.76279 15.4119 4.76683 15.6046 4.77087C15.6863 4.76683 15.8225 4.76279 16.0089 4.76279C18.7408 4.76279 25.0948 5.65373 25.0948 13.9166V19.9492C25.0948 20.1855 25.1807 20.4138 25.3357 20.5956L27.4684 23.0705H3.62772V23.0705ZM15.5502 30C16.3995 29.9995 17.2139 29.6738 17.8145 29.0947C18.4151 28.5155 18.7528 27.7301 18.7533 26.911H12.347C12.3475 27.7301 12.6852 28.5155 13.2858 29.0947C13.8864 29.6738 14.7008 29.9995 15.5502 30V30Z" fill="#ead0d1"/>
</svg>
