<svg width="96" height="90" viewBox="0 0 96 90" fill="none" xmlns="http://www.w3.org/2000/svg">
<g filter="url(#filter0_d_145_811)">
<path d="M91.6098 64.9885L81.9653 54.3762V38.7471C81.9653 18.5302 68.6446 9.91673 54.6228 8.26865V6.36444C54.6228 4.78069 53.934 3.2618 52.7078 2.14192C51.4816 1.02204 49.8185 0.392899 48.0844 0.392899C46.3503 0.392899 44.6873 1.02204 43.4611 2.14192C42.2349 3.2618 41.546 4.78069 41.546 6.36444V8.26865C27.5243 9.9223 14.2036 18.5302 14.2036 38.7416V54.3762L4.55904 64.9885C4.18658 65.3941 3.94903 65.8886 3.87447 66.4136C3.79991 66.9386 3.89146 67.4721 4.13829 67.9511C4.38513 68.4301 4.77694 68.8345 5.26742 69.1166C5.7579 69.3987 6.32655 69.5467 6.90617 69.543H89.2688C89.8479 69.5456 90.4157 69.3968 90.9053 69.1143C91.3949 68.8318 91.7857 68.4273 92.0318 67.9485C92.2779 67.4698 92.369 66.9367 92.2942 66.4122C92.2194 65.8878 91.9819 65.3938 91.6098 64.9885V64.9885ZM48.0875 83.0729C50.5592 83.0715 52.9292 82.1741 54.6769 80.5778C56.4247 78.9816 57.4073 76.8171 57.4089 74.5597H38.7661C38.7677 76.8171 39.7503 78.9816 41.498 80.5778C43.2458 82.1741 45.6158 83.0715 48.0875 83.0729V83.0729Z" fill="#EA7C69"/>
</g>
<defs>
<filter id="filter0_d_145_811" x="0.387574" y="0.392899" width="95.3937" height="89.6034" filterUnits="userSpaceOnUse" color-interpolation-filters="sRGB">
<feFlood flood-opacity="0" result="BackgroundImageFix"/>
<feColorMatrix in="SourceAlpha" type="matrix" values="0 0 0 0 0 0 0 0 0 0 0 0 0 0 0 0 0 0 127 0" result="hardAlpha"/>
<feOffset dy="3.46167"/>
<feGaussianBlur stdDeviation="1.73083"/>
<feComposite in2="hardAlpha" operator="out"/>
<feColorMatrix type="matrix" values="0 0 0 0 0 0 0 0 0 0 0 0 0 0 0 0 0 0 0.25 0"/>
<feBlend mode="normal" in2="BackgroundImageFix" result="effect1_dropShadow_145_811"/>
<feBlend mode="normal" in="SourceGraphic" in2="effect1_dropShadow_145_811" result="shape"/>
</filter>
</defs>
</svg>
