<svg width="30" height="30" viewBox="0 0 30 30" fill="none" xmlns="http://www.w3.org/2000/svg">
<path d="M29.88 13.2C29.82 13.025 29.76 12.875 29.64 12.725L23.76 5.375C23.54 5.075 23.24 4.975 22.94 5H18C18 2.25 16.2 0 14 0H4C1.8 0 0 2.25 0 5V23.75C0 24.45 0.44 25 1 25H2C2 27.75 3.8 30 6 30C8.2 30 10 27.75 10 25H20C20 27.75 21.8 30 24 30C26.2 30 28 27.75 28 25H29C29.56 25 30 24.45 30 23.75V13.75C30 13.55 29.96 13.35 29.88 13.2ZM6 27.5C4.9 27.5 4 26.375 4 25C4 23.625 4.9 22.5 6 22.5C7.1 22.5 8 23.625 8 25C8 26.375 7.1 27.5 6 27.5ZM16 22.5H9.44C8.76 21 7.48 20 6 20C4.52 20 3.24 21 2.56 22.5H2V5C2 3.625 2.9 2.5 4 2.5H14C15.1 2.5 16 3.625 16 5V22.5ZM24 27.5C22.9 27.5 22 26.375 22 25C22 23.625 22.9 22.5 24 22.5C25.1 22.5 26 23.625 26 25C26 26.375 25.1 27.5 24 27.5ZM28 22.5H27.44C26.74 21 25.48 20 24 20C22.52 20 21.24 21 20.56 22.5H18V7.5H22.52L28 14.35V22.5Z" fill="#ead0d1"/>
</svg>
