<svg width="30" height="30" viewBox="0 0 30 30" fill="none" xmlns="http://www.w3.org/2000/svg">
<path d="M27.0938 18.3311L25.1748 16.6904C25.2656 16.1338 25.3125 15.5654 25.3125 14.9971C25.3125 14.4287 25.2656 13.8604 25.1748 13.3037L27.0938 11.6631C27.3897 11.4111 27.4981 11.001 27.3662 10.6318L27.3399 10.5557C26.8096 9.07617 26.0244 7.7168 25.0049 6.51562L24.9522 6.4541C24.7002 6.1582 24.293 6.04687 23.9238 6.17578L21.542 7.02246C20.6631 6.30176 19.6817 5.7334 18.6211 5.33496L18.1611 2.84473C18.0908 2.46094 17.7891 2.16211 17.4053 2.0918L17.3262 2.07715C15.7998 1.80176 14.1944 1.80176 12.668 2.07715L12.5889 2.0918C12.2051 2.16211 11.9033 2.46094 11.833 2.84473L11.3701 5.34668C10.3184 5.74512 9.34279 6.31055 8.46974 7.02832L6.07033 6.17578C5.70412 6.04687 5.29396 6.15527 5.04201 6.4541L4.98927 6.51562C3.96974 7.71973 3.18458 9.0791 2.65431 10.5557L2.62794 10.6318C2.49611 10.998 2.60451 11.4082 2.9004 11.6631L4.84279 13.3213C4.75197 13.8721 4.70802 14.4346 4.70802 14.9941C4.70802 15.5566 4.75197 16.1191 4.84279 16.667L2.9004 18.3252C2.60451 18.5771 2.49611 18.9873 2.62794 19.3564L2.65431 19.4326C3.18458 20.9092 3.96974 22.2715 4.98927 23.4727L5.04201 23.5342C5.29396 23.8301 5.70119 23.9414 6.07033 23.8125L8.46974 22.96C9.34279 23.6777 10.3184 24.2461 11.3701 24.6416L11.833 27.1436C11.9033 27.5273 12.2051 27.8262 12.5889 27.8965L12.668 27.9111C13.4326 28.0488 14.2149 28.1191 14.9971 28.1191C15.7793 28.1191 16.5645 28.0488 17.3262 27.9111L17.4053 27.8965C17.7891 27.8262 18.0908 27.5273 18.1611 27.1436L18.6211 24.6533C19.6817 24.2549 20.6631 23.6895 21.542 22.9658L23.9238 23.8125C24.2901 23.9414 24.7002 23.833 24.9522 23.5342L25.0049 23.4727C26.0244 22.2686 26.8096 20.9092 27.3399 19.4326L27.3662 19.3564C27.4981 18.9961 27.3897 18.5859 27.0938 18.3311V18.3311ZM23.0947 13.6494C23.168 14.0918 23.2061 14.5459 23.2061 15C23.2061 15.4541 23.168 15.9082 23.0947 16.3506L22.9014 17.5254L25.0899 19.3975C24.7588 20.1621 24.3399 20.8828 23.8418 21.5537L21.1231 20.5898L20.2031 21.3457C19.5029 21.9199 18.7236 22.3711 17.8799 22.6875L16.7637 23.1064L16.2393 25.9482C15.416 26.042 14.5752 26.042 13.749 25.9482L13.2246 23.1006L12.1172 22.6758C11.2822 22.3594 10.5059 21.9082 9.81154 21.3369L8.89162 20.5781L6.15529 21.5508C5.65724 20.8799 5.24123 20.1563 4.90724 19.3945L7.11916 17.5049L6.92873 16.333C6.85841 15.8965 6.82033 15.4453 6.82033 15C6.82033 14.5518 6.85548 14.1035 6.92873 13.667L7.11916 12.4951L4.90724 10.6055C5.2383 9.84082 5.65724 9.12012 6.15529 8.44922L8.89162 9.42188L9.81154 8.66309C10.5059 8.0918 11.2822 7.64062 12.1172 7.32422L13.2276 6.90527L13.752 4.05762C14.5752 3.96387 15.416 3.96387 16.2422 4.05762L16.7666 6.89941L17.8828 7.31836C18.7236 7.63477 19.5059 8.08594 20.2061 8.66016L21.126 9.41602L23.8447 8.45215C24.3428 9.12305 24.7588 9.84668 25.0928 10.6084L22.9043 12.4805L23.0947 13.6494Z" fill="#ead0d1"/>
<path d="M15 9.55078C12.1523 9.55078 9.84375 11.8594 9.84375 14.707C9.84375 17.5547 12.1523 19.8633 15 19.8633C17.8477 19.8633 20.1562 17.5547 20.1562 14.707C20.1562 11.8594 17.8477 9.55078 15 9.55078ZM17.3203 17.0273C16.6992 17.6455 15.876 17.9883 15 17.9883C14.124 17.9883 13.3008 17.6455 12.6797 17.0273C12.0615 16.4063 11.7188 15.583 11.7188 14.707C11.7188 13.8311 12.0615 13.0078 12.6797 12.3867C13.3008 11.7656 14.124 11.4258 15 11.4258C15.876 11.4258 16.6992 11.7656 17.3203 12.3867C17.9385 13.0078 18.2812 13.8311 18.2812 14.707C18.2812 15.583 17.9385 16.4063 17.3203 17.0273Z" fill="#ead0d1"/>
</svg>
