<svg width="22" height="28" viewBox="0 0 22 28" fill="none" xmlns="http://www.w3.org/2000/svg">
<path d="M18.9043 0.875H3.0957C1.46094 0.875 0.130859 2.20508 0.130859 3.83984V26.4219C0.130859 26.8115 0.447266 27.1279 0.836914 27.1279C1.22656 27.1279 1.54297 26.8115 1.54297 26.4219V23.8262H2.38965V25.0391C2.38965 25.3496 2.6416 25.6045 2.95508 25.6045C3.26855 25.6045 3.52051 25.3525 3.52051 25.0391V23.8262H18.4795V25.0391C18.4795 25.3496 18.7314 25.6045 19.0449 25.6045C19.3555 25.6045 19.6104 25.3525 19.6104 25.0391V23.8262H20.457V26.4219C20.457 26.8115 20.7734 27.1279 21.1631 27.1279C21.5527 27.1279 21.8691 26.8115 21.8691 26.4219V3.83984C21.8662 2.20508 20.5361 0.875 18.9043 0.875ZM1.54297 12.9834V8.35449H20.4541V12.9834H1.54297ZM3.0957 2.28711H18.9014C19.7568 2.28711 20.4541 2.98438 20.4541 3.83984V6.94531H1.54297V3.83984C1.54297 2.98145 2.24023 2.28711 3.0957 2.28711ZM1.54297 14.3955H10.2676V22.4111H1.54297V14.3955ZM11.6768 22.4111V14.3955H20.4541V22.4111H11.6768Z" fill="#ead0d1"/>
</svg>
