<svg width="19" height="20" viewBox="0 0 19 20" fill="none" xmlns="http://www.w3.org/2000/svg">
<path d="M12.785 11.1462C13.5857 10.5801 14.238 9.82894 14.6863 8.95671C15.1346 8.08448 15.3657 7.11692 15.36 6.13624C15.3587 2.755 12.6625 0 9.35375 0C6.04625 0 3.39 2.755 3.39 6.09499C3.39 8.18249 4.41125 10.02 5.96375 11.105C4.19405 11.8211 2.67979 13.0515 1.61666 14.6372C0.553522 16.2228 -0.00962261 18.0909 -8.0069e-07 20H1.675C1.675 15.9925 4.65625 12.6912 8.45625 12.2312C8.49625 12.2312 9.51875 12.1487 10.375 12.2312H10.4575C14.175 12.775 17.0337 16.0312 17.0337 19.9962H18.75C18.7087 15.9887 16.2587 12.5237 12.785 11.1462ZM9.355 10.6875C6.8625 10.6875 4.86125 8.64124 4.86125 6.09499C4.86125 3.54875 6.8625 1.5025 9.355 1.5025C11.8462 1.5025 13.8475 3.54875 13.8475 6.09499C13.8475 8.64124 11.8475 10.6875 9.355 10.6875Z" fill="#ead0d1"/>
</svg>
